<?xml version="1.0" encoding="UTF-8" standalone="no"?>
<!-- Generator: Adobe Illustrator 26.0.1, SVG Export Plug-In . SVG Version: 6.00 Build 0)  -->

<svg
   version="1.1"
   id="Layer_1"
   x="0px"
   y="0px"
   width="200"
   height="200"
   viewBox="0 0 200 200.00001"
   xml:space="preserve"
   sodipodi:docname="Contrast_Logo_RGB.svg"
   inkscape:version="1.3 (0e150ed, 2023-07-21)"
   xmlns:inkscape="http://www.inkscape.org/namespaces/inkscape"
   xmlns:sodipodi="http://sodipodi.sourceforge.net/DTD/sodipodi-0.dtd"
   xmlns="http://www.w3.org/2000/svg"
   xmlns:svg="http://www.w3.org/2000/svg"><defs
   id="defs19" /><sodipodi:namedview
   id="namedview19"
   pagecolor="#ffffff"
   bordercolor="#000000"
   borderopacity="0.25"
   inkscape:showpageshadow="2"
   inkscape:pageopacity="0.0"
   inkscape:pagecheckerboard="0"
   inkscape:deskcolor="#d1d1d1"
   inkscape:zoom="1.5579437"
   inkscape:cx="198.65929"
   inkscape:cy="83.122386"
   inkscape:window-width="1728"
   inkscape:window-height="1080"
   inkscape:window-x="0"
   inkscape:window-y="37"
   inkscape:window-maximized="0"
   inkscape:current-layer="Layer_1" />&#10;<style
   type="text/css"
   id="style1">&#10;	.st0{fill:#004D45;}&#10;	.st1{fill:#0A004F;}&#10;	.st2{fill:#9DA5B3;}&#10;	.st3{fill:#0E9E53;}&#10;</style>&#10;<path
   class="st0"
   d="m 60.85943,100.35839 c 0,26.18489 10.07814,49.43144 26.65041,65.09494 -2.61909,0.2372 -5.31477,0.35199 -8.09468,0.35199 C 32.52422,165.80532 0,138.65628 0,101.50618 0,64.356078 32.52422,37.199388 79.41516,37.199388 c 1.86094,0 3.67592,0.03826 5.42964,0.10713 -15.04829,15.74766 -23.98537,38.19076 -23.98537,63.051872 z"
   id="path1" />&#10;&#10;&#10;&#10;&#10;&#10;&#10;&#10;&#10;&#10;<path
   class="st3"
   d="m 199.43523,49.656728 c 2.21541,14.2785 -8.77763,26.03185 -27.44823,26.03185 -28.05937,0 -33.04024,-36.10944 -87.1422,-38.38206 13.6821,-14.37797 32.44437,-23.18534 54.1478,-23.18534 0.4278,0 0.84796,0 1.27577,0.0076 31.21443,0 56.73754,19.94092 59.16686,35.5279 z"
   id="path18" />&#10;<path
   class="st1"
   d="m 183.20439,128.04306 c 7.23546,1.40795 16.51288,6.3511 16.51288,21.37948 0,20.86681 -32.49408,36.43848 -59.50955,36.69864 0,0 -0.0693,0 -0.13098,0 -0.0462,0 -0.0694,0 -0.0925,0 -0.0231,0 -0.0308,0 -0.0308,0 -20.57368,-0.0306 -38.72012,-7.78201 -52.4436,-20.66785 47.61225,-4.03257 69.91195,-42.45289 95.69454,-37.41027 z"
   id="path19" />&#10;</svg>
